<svg xmlns="http://www.w3.org/2000/svg" width="800" height="238.933"><path fill="rgba(255,255,255,0)" d="M0 0h800v238.933H0z"/><path fill="#e06458" d="m320.14 8.86.41.59q.42.58.63 1.27.22.69.2 1.39-.02.72-.27 1.4-.25.67-.7 1.23t-1.05.95q-.61.39-1.31.56-.69.17-1.4.11-.72-.05-1.38-.34-.66-.28-1.19-.76-.54-.48-.89-1.11-.35-.62-.49-1.33-.13-.71-.04-1.41.1-.71.42-1.35.32-.65.83-1.15.5-.51 1.15-.83.64-.32 1.35-.42.71-.09 1.41.04.71.14 1.33.49.63.35 1.11.89.48.53.76 1.19.29.66.34 1.38.06.71-.11 1.4-.18.7-.56 1.31-.39.6-.95 1.05t-1.23.7q-.68.25-1.4.27-.71.02-1.39-.2-.69-.21-1.27-.63-.59-.42-.59-.41l-.33-.43q-.33-.42-.55-.91-.22-.48-.31-1.01-.1-.53-.07-1.05.04-.54.2-1.05t.43-.97q.28-.45.66-.83t.83-.66q.46-.28.97-.43.51-.16 1.05-.2.52-.03 1.05.07.53.09 1.01.31.49.22.91.55z"/><path fill="#e06458" d="m322.09 11 .02 2.58q.02 2.59.07 7.4.04 4.81.1 9.49.06 4.67.03 7.51-.03 2.83.05 7.21.09 4.38.64 7.08.55 2.69.72 4.53.18 1.84.08 2.79-.1.96-.49 1.83-.4.87-1.06 1.57-.65.69-1.49 1.15-.85.45-1.79.61t-1.89.01q-.93-.15-1.78-.59-.85-.45-1.51-1.14t-1.07-1.56q-.41-.86-.51-1.81-.11-.95.09-1.89.2-.93.69-1.76.49-.82 1.21-1.44.73-.63 1.62-.99.88-.35 1.83-.41t1.88.19q.92.25 1.71.79.8.53 1.38 1.29.59.76.9 1.66.31.91.31 1.86.01.96-.29 1.87t-.88 1.67q-.57.77-1.36 1.31t-1.71.8-1.88.22q-.95-.05-1.84-.4t-1.62-.97q-.73-.61-1.23-1.43t-.71-1.75l-.21-.93V57.8q0-1.56-.27-4.89-.28-3.34-.19-7.72.08-4.38.05-7.21-.03-2.84.03-7.51.06-4.68.1-9.49.05-4.81.07-7.4.02-2.58.1-3.18.07-.61.29-1.19.22-.57.57-1.08.34-.5.8-.91.46-.4 1.01-.69.54-.28 1.14-.43.59-.15 1.2-.15t1.2.15q.6.15 1.14.43.55.29 1.01.69.46.41.8.91.35.51.57 1.08.22.58.29 1.19z"/><path fill="#e06458" d="m319.44 28.95 2.58-.31q2.58-.31 7.04-.61 4.45-.31 6.89-.35t5.8-.42q3.35-.38 4.91-.66 1.55-.27 2.48-.25.93.03 1.8.34.87.32 1.59.9t1.23 1.36q.5.78.72 1.68.23.9.15 1.83-.07.92-.44 1.76-.36.85-.98 1.55-.62.69-1.43 1.14-.8.46-1.71.64-.91.17-1.83.05-.92-.13-1.75-.54T345 36q-.65-.66-1.07-1.49-.41-.82-.54-1.73-.12-.92.05-1.83t.63-1.72q.45-.81 1.14-1.43t1.54-.99q.85-.36 1.78-.44.92-.08 1.82.15.9.22 1.68.72.79.5 1.37 1.22t.9 1.59.35 1.79q.02.93-.25 1.82-.27.87-.81 1.63-.54.75-1.29 1.29-.75.55-1.64.82l-.88.27-1.58.16q-1.57.15-5.64.38-4.07.22-6.43.22-2.37 0-6.38.05-4.01.04-6.6.31-2.59.26-3.2.26-.61-.01-1.2-.16-.6-.16-1.14-.45t-.99-.7q-.46-.41-.8-.92-.35-.51-.56-1.08-.21-.58-.28-1.19-.06-.6.02-1.21.08-.6.3-1.17.22-.58.58-1.08.35-.5.81-.9.47-.4 1.01-.68.55-.28 1.15-.42z"/><path fill="#e06458" d="m355.53 18.55.32 2.87q.32 2.87.22 5.91-.11 3.03-.31 6.64t-.55 7.09q-.35 3.47-.72 7.6-.36 4.13-.42 7.65-.07 3.51-.12 7.69-.06 4.18-.74 6.8-.69 2.62-1.04 3.3-.34.69-.89 1.23-.53.54-1.22.87-.69.34-1.45.44-.77.1-1.52-.05t-1.42-.54q-.66-.38-1.17-.95-.51-.58-.81-1.28-.3-.71-.35-1.48-.06-.76.13-1.51.19-.74.61-1.38.42-.65 1.02-1.12.6-.48 1.32-.74t1.49-.28q.77-.01 1.5.22t1.35.68q.61.45 1.06 1.08.44.63.66 1.36.22.74.19 1.5-.02.77-.29 1.49t-.76 1.31q-.48.6-1.12 1.01-.65.41-1.4.59-.74.18-1.51.11-.76-.07-1.46-.38-.71-.31-1.28-.82-.56-.52-.94-1.19-.37-.67-.51-1.42-.14-.76-.03-1.52l.11-.76.75-1.96q.76-1.96 1.35-5.44t.64-7.05q.05-3.58-.05-8-.09-4.43.2-7.57.28-3.14.22-6.96-.07-3.82.16-6.11.23-2.28-.02-5.16-.26-2.87-.25-3.41.01-.55.16-1.08.14-.53.41-1.01.26-.48.63-.89.38-.4.83-.7.46-.3.98-.49.52-.18 1.07-.24.53-.05 1.08.03.54.07 1.05.28t.95.53q.45.32.8.74.36.42.6.91.25.49.37 1.03zm38.78 31.52-1.73-.51q-1.74-.51-3.97-.6t-5.13.01q-2.91.1-5.46.17t-3.44 2.11 1.38 4.01q2.28 1.96 5.92 3.81 3.65 1.84 8.15 3.43t7.23 1.91q2.73.33 4.41-1.34t1.72-4.29q.04-2.63-1.74-5.56t-2.33-3.86-.78-1.98q-.22-1.06-.1-2.14.12-1.06.58-2.04t1.21-1.76 1.71-1.28 2.03-.67q1.06-.17 2.13.01t2.02.69q.95.52 1.69 1.31t1.19 1.77.56 2.05q.11 1.08-.13 2.13-.24 1.06-.8 1.98t-1.39 1.62-1.84 1.09-2.09.45q-1.08.05-2.12-.25-1.04-.29-1.93-.91-.89-.61-1.54-1.47-.65-.87-.99-1.9-.34-1.02-.33-2.11 0-1.07.35-2.09.36-1.02 1.02-1.88t1.56-1.46q.89-.6 1.94-.88 1.04-.29 2.12-.22 1.08.06 2.09.47 1 .41 1.82 1.11l.82.71 1.65 2.09q1.66 2.08 2.86 5.18 1.21 3.09 1.47 6.89.27 3.8-.26 7.45t-1.49 5.56q-.97 1.92-2.48 3.6-1.5 1.69-5.85 3.13t-7.28 1.09q-2.92-.35-5.59-.84-2.67-.5-4.91-1.27-2.24-.76-4.59-1.46-2.36-.7-5.35-1.78-3-1.09-5.91-2.8-2.9-1.71-4.74-3.43-1.83-1.71-3.74-4.3-1.9-2.59-2.63-5.44t-.25-5.59q.49-2.75 2.02-5.57 1.53-2.83 4.99-4.8 3.47-1.97 6.41-2.25 2.95-.29 5.7-.19 2.74.09 4.96.27t5.69.79 5.18 1.25 2.29.92 1.08.68q.5.41.89.93.38.51.64 1.1.25.6.35 1.23.11.64.05 1.27-.05.64-.25 1.25-.21.61-.55 1.16-.34.54-.81.99-.46.45-1.02.77t-1.18.5-1.26.21q-.63.02-1.26-.11zm29.29-1.18 2.98-1.73q2.97-1.74 5.61-1.5t4.29 1.84q1.64 1.6 2.29 4.46t.77 7.53q.13 4.67.24 7.43.12 2.76 1.35-1.03t2.96-6.24q1.73-2.46 3.73-5.37t3.77-6.26q1.76-3.33 2.64-4.97.89-1.64 1.19-2.14.29-.5.7-.91t.91-.72q.49-.3 1.04-.48.56-.17 1.14-.21t1.15.06 1.1.34q.53.23.99.59.46.35.82.81.37.45.61.98t.35 1.1.07 1.15q-.03.58-.2 1.14-.17.55.9 3.25 1.06 2.72 1.13 5.33.06 2.61.2 6.51.15 3.9.49 6.25t3.7.43q3.36-1.93 6.4-3.89t6.22-4.21q3.19-2.26 6.84-5.41t6.43-5.6q2.77-2.45 4.24-4.35 1.46-1.9 2.63-3.48t1.74-2.07 1.27-.77 1.45-.32q.75-.05 1.47.15.73.2 1.35.62t1.08 1.02.7 1.31.24 1.46q0 .76-.24 1.47t-.69 1.31-1.07 1.02q-.62.43-1.35.63-.72.2-1.47.16t-1.45-.31q-.7-.28-1.28-.76-.57-.49-.96-1.13-.39-.65-.55-1.38t-.08-1.48.39-1.43.83-1.23 1.18-.9q.66-.36 1.4-.48.75-.12 1.49 0t1.4.47q.67.35 1.19.9.52.54.83 1.22.32.68.4 1.43.09.75-.08 1.48-.16.74-.54 1.38l-.39.65q0-.01-1.36 1.41t-3.33 3.56q-1.97 2.15-4.55 4.64-2.58 2.48-6.13 6.35-3.54 3.87-6.47 6.63-2.93 2.77-6.16 5.72t-5.66 4.4q-2.42 1.45-4.81 2.09-2.39.63-5.07.42t-4.81-.78q-2.14-.57-4.68-3.97-2.53-3.4-2.78-7.04-.24-3.65-.13-7.5t.1-6.22q0-2.36.21-4.52.2-2.14-.3-4.96-.49-2.83-.19-3.33.29-.5.7-.91t.91-.72q.49-.3 1.04-.48.56-.17 1.14-.21t1.15.06 1.1.34q.53.23.99.59.46.35.82.81.37.45.61.98t.35 1.1.07 1.15q-.03.58-.2 1.14-.17.55-1.27 2.1-1.1 1.54-2.65 5.7-1.56 4.16-3.31 7.4-1.75 3.25-3.44 6.07-1.69 2.83-3.46 5.66-1.78 2.82-4.44 5.39-2.65 2.56-5.63 3.05t-6.65-2.28q-3.66-2.76-4.42-5.3-.75-2.53-.68-5.39.08-2.86-.01-5.45-.08-2.59 1.56-4.89t1.17-1.11-1 1.54-1.12.57q-.6.21-1.23.27-.62.06-1.25-.02-.63-.09-1.22-.33t-1.1-.61-.92-.85q-.42-.49-.7-1.05-.28-.57-.42-1.19t-.13-1.25q.02-.64.18-1.25.17-.61.47-1.17.31-.55.74-1.02zM221.152 181.694l2.235-.691q2.236-.692 5.71-1.948 3.476-1.256 6.698-2.074 3.213-.83 6.044-1.233t5.577-.654q2.756-.25 6.355-.39 3.6-.138 4.462-.016.871.133 1.647.528.785.407 1.39 1.027.612.63.99 1.42.386.79.485 1.653.107.875-.065 1.732-.182.857-.616 1.619-.443.751-1.101 1.332-.657.57-1.473.904-.805.335-1.676.403-.879.057-1.722-.164-.853-.222-1.58-.703t-1.274-1.176q-.538-.684-.83-1.516-.294-.821-.301-1.696-.017-.875.254-1.713.27-.829.788-1.533.52-.713 1.24-1.207.722-.504 1.558-.746.838-.252 1.719-.218.87.042 1.694.352.814.309 1.485.865.679.567 1.141 1.304.461.747.661 1.6t.118 1.719q-.083.876-.44 1.675-.358.8-.952 1.447-.593.636-1.358 1.066-.773.418-1.63.568l-.86.159-3.199-.054q-3.2-.043-7.82.37-4.61.415-7.649 1.412-3.037.986-6.742 2.03-3.695 1.034-5.961 1.622t-2.868.681-1.2.047q-.597-.057-1.17-.253-.575-.195-1.086-.525-.512-.32-.922-.76-.42-.443-.72-.973-.303-.521-.468-1.11-.166-.578-.179-1.182-.022-.605.104-1.196.117-.591.38-1.139.262-.537.649-1.013.386-.465.872-.82.487-.366 1.05-.594z"/><path fill="#e06458" d="m249.444 161.212-.842 3.043q-.852 3.043-1.457 6.33-.595 3.3-.994 6.426-.387 3.117-.76 6.406-.374 3.29-.918 7.206-.543 3.916-.721 6.732-.187 2.805-.392 5.698-.214 2.883-.385 5.519-.17 2.635-.185 5.216-.015 2.58 2.053 1.752 2.068-.838 4.838-1.86 2.758-1.013 5.23-2.294 2.463-1.272 5.24-2.384 2.768-1.113 4.57-1.895 1.802-.773 2.707-.988.914-.214 1.85-.125.926.088 1.783.471.848.382 1.54 1.02.683.638 1.128 1.454.453.827.617 1.746.163.92.015 1.85-.138.921-.57 1.754-.42.834-1.095 1.483-.674.649-1.516 1.05-.842.403-1.777.515-.925.113-1.841-.075-.917-.188-1.725-.667-.809-.469-1.414-1.18-.617-.7-.976-1.569-.36-.858-.421-1.798-.053-.929.184-1.83.238-.912.753-1.687.517-.784 1.255-1.357t1.62-.88 1.819-.32q.935-.01 1.822.275.897.286 1.647.85.75.553 1.28 1.317.54.775.796 1.673.266.9.217 1.829-.038.93-.373 1.813-.334.872-.935 1.588-.59.717-1.391 1.214-.8.486-.79.487l-1.827.72q-1.825.71-3.971 1.62-2.136.912-4.574 2.358-2.448 1.444-6.79 2.94-4.35 1.494-7.05 1.89t-5.404-.113q-2.685-.497-5.445-2.85-2.759-2.352-2.874-5.256t.367-5.44q.473-2.536.804-5.166.34-2.62.674-5.501.345-2.88.722-5.677.367-2.798.606-6.784.248-3.984.589-7.347.351-3.372.764-6.647.421-3.265.954-7.072.533-3.796 1.366-6.851.831-3.035 1.041-3.547.209-.503.532-.944t.748-.793q.417-.362.911-.596.495-.244 1.03-.364.532-.11 1.083-.098.542.012 1.07.162.529.141 1.006.408.477.266.872.645.407.37.705.83.298.461.48.98.18.52.229 1.067.058.548-.022 1.073z"/><path fill="#e06458" d="m286.637 164.959-.325 3.093q-.325 3.093-.698 6.372-.373 3.29-.813 5.8t-1.458 5.606q-1.008 3.089-1.647 6.212-.628 3.115-1.251 5.868-.613 2.744-1.59 5.293-.966 2.55-2.332 5.715t-1.815 4.608q-.45 1.454-.86 1.968-.412.523-.943.935-.52.402-1.13.676-.608.273-1.261.382-.654.118-1.313.075-.67-.043-1.303-.244-.634-.201-1.194-.546-.57-.345-1.037-.812-.467-.476-.815-1.042-.337-.574-.528-1.205-.2-.642-.238-1.299-.037-.666.085-1.318.122-.65.401-1.257t3-3.451q2.723-2.845 6.586-6.385 3.862-3.53 6.88-5.793 3.018-2.265 5.064-4.23 2.045-1.964 3.997-3.577t4.995-4.034q3.044-2.433 6.833-2.242 3.78.179 5.444 2.859 1.662 2.69 1.667 5.382-.006 2.701-.205 4.892-.2 2.201-.805 5.077-.615 2.875-1.065 6.549-.45 3.663-.69 5.86-.238 2.188-.449 4.297-.221 2.119-1.27-.16-1.05-2.27 1.06-2.702 2.12-.421 5.815-1.978 3.694-1.557 7.11-4.094 3.407-2.549 4.386-2.918t2.018-.41q1.049-.041 2.045.255 1.007.297 1.864.89.857.604 1.47 1.446.623.843.94 1.838.317.994.298 2.037-.01 1.044-.364 2.025-.345.992-.996 1.814-.641.822-1.519 1.392-.868.57-1.878.836-1.01.265-2.057.185-1.038-.068-2.004-.472t-1.754-1.091q-.779-.687-1.305-1.59-.527-.905-.73-1.929-.215-1.025-.086-2.057.13-1.043.58-1.984.462-.94 1.186-1.685.733-.744 1.663-1.218.929-.474 1.968-.626 1.029-.153 2.057.025 1.027.188 1.942.697.917.5 1.627 1.27.7.77 1.122 1.724.431.955.523 1.999.102 1.034-.146 2.055-.237 1.012-.794 1.903-.546.883-1.353 1.55l-.807.666-.805.335q-.816.344-2.58 1.874-1.752 1.53-5.178 3.113-3.425 1.582-6.36 2.97-2.926 1.4-6.284 1.853t-5.643-.025q-2.285-.48-4.168-1.804-1.873-1.323-2.793-3.58-.92-2.248-.648-5.005.273-2.766.5-5.045.238-2.288.85-6.398.612-4.1 1.03-6.371.417-2.27.851-6.097.444-3.815 2.483-2.124 2.049 1.692-1.312 4.174-3.37 2.482-5.63 4.698-2.262 2.225-5.025 4.865-2.762 2.64-4.873 4.549-2.111 1.918-5.356 5.085-3.236 3.177-3.646 3.69-.412.524-.943.936-.52.402-1.13.676-.608.273-1.261.382-.654.118-1.313.075-.67-.043-1.303-.244-.634-.201-1.194-.546-.57-.345-1.037-.812-.467-.476-.815-1.042-.337-.574-.528-1.205-.2-.642-.238-1.299-.037-.666.085-1.318.122-.65.401-1.257t.222-.753q-.057-.136 1.191-1.955 1.257-1.81 2.955-5.294 1.698-3.485 2.359-5.883.661-2.408 1.255-6.219.594-3.81 1.982-8.37 1.388-4.549 1.641-7.84t.518-6.39.39-3.669.386-1.098.635-.974.85-.793q.474-.347 1.017-.566.544-.22 1.124-.305t1.158-.03 1.132.248 1.046.511.893.748.684.94.44 1.076.172 1.152z"/><path fill="#e06458" d="m326.725 193.102 2.175.157q2.175.157 4.672.405 2.508.249 4.915-.768 2.417-1.015 4.705-2.465 2.289-1.46 3.032-3.78.734-2.33-2.027-1.599-2.761.722-5.35 1.65-2.592.94-4.437 3.225-1.844 2.275-3.36 5.124-1.527 2.848-1.978 5.256-.461 2.417-.809 5.438-.347 3.01.198 5.092.556 2.072 3.654 2.558 3.109.477 6.226.974 3.118.488 5.594.855 2.466.365 4.74.019 2.263-.347 5.18-1.345 2.918-.998 5.358-2.463 2.44-1.475 3.645-3.26 1.205-1.783 1.972-2.453.757-.672 1.688-1.065.932-.393 1.934-.469 1.011-.074 1.992.18.98.254 1.832.797.852.553 1.48 1.347.627.793.968 1.75.341.946.365 1.963.015 1.006-.288 1.971t-.893 1.784q-.6.816-1.43 1.4-.819.585-1.79.875-.972.289-1.984.263-1.011-.036-1.951-.397-.951-.352-1.734-.989-.784-.637-1.324-1.502-.541-.855-.78-1.832-.237-.987-.151-1.994.095-1.005.495-1.932.41-.935 1.094-1.683.675-.75 1.565-1.238.88-.488 1.872-.675 1.002-.186 2.003-.04 1 .145 1.902.603.9.457 1.616 1.168.715.721 1.15 1.637.446.906.571 1.912.135 1.008-.059 1.994-.205.995-.71 1.87l-.496.878-3.995 3.768q-3.995 3.768-6.179 4.966-2.182 1.189-4.287 1.983-2.096.805-4.181 1.29-2.087.494-6.014 1.235-3.918.742-8.488.306-4.568-.445-8.588-1.38-4.008-.944-7.774-2.75-3.756-1.804-5.502-3.929-1.747-2.115-2.585-5.239-.828-3.122-.771-6.351.066-3.229.676-7.31.608-4.07 1.265-6.217.645-2.139 1.716-4.417t3.759-5.82 5.188-6.066 5.02-3.66q2.518-1.126 6.192-1.62 3.683-.493 5.938-.128 2.256.366 4.283 1.131 2.025.776 4.183 1.845 2.169 1.07 3.889 4.74t.96 6.802q-.771 3.13-1.915 5.332-1.143 2.192-3.173 4.208-2.02 2.018-5.42 3.743-3.39 1.747-5.513 2.409-2.112.662-4.653 1.073-2.549.4-5.148.163-2.6-.238-4.765-.494-2.165-.257-2.786-.386-.63-.14-1.195-.425-.576-.276-1.069-.695-.493-.408-.866-.926t-.617-1.113q-.246-.586-.336-1.218-.1-.642-.04-1.27.06-.636.279-1.238.208-.603.56-1.133.352-.539.816-.977t1.025-.746q.563-.318 1.181-.48.61-.173 1.254-.192zm81.662-2.112 2.43.43q2.442.44 6.226.823 3.783.384 7.613.17 3.839-.216 6.591-.434 2.764-.21 6.588-.373 3.815-.162 6.75-.47 2.923-.308 5.725-.622 2.803-.314 4.871-.63 2.07-.304 2.888-.263.81.053 1.568.353.755.29 1.376.817.621.536 1.04 1.235.417.699.594 1.494.167.797.083 1.6-.093.815-.436 1.547-.342.741-.9 1.335-.56.594-1.283.974-.724.38-1.524.507-.811.128-1.61-.006-.81-.134-1.524-.509-.716-.385-1.283-.977-.558-.593-.9-1.33-.342-.748-.42-1.554-.088-.816.088-1.61.175-.793.592-1.492.427-.7 1.045-1.22.627-.52 1.38-.813.762-.304 1.571-.352.82-.039 1.599.179.788.216 1.46.666.674.46 1.167 1.11t.748 1.428q.254.767.262 1.581-.002.815-.27 1.589-.258.772-.751 1.419t-1.168 1.102-1.466.672l-.781.216-2.088.136q-2.086.146-4.902.431t-5.76.595q-2.933.309-6.768.936t-8.808.956q-4.984.33-7.958.27-2.973-.06-6.853-.775t-6.295-1.278-2.956-.736q-.543-.182-1.03-.491-.476-.31-.872-.72-.398-.42-.693-.911-.285-.502-.445-1.048-.15-.547-.182-1.117-.022-.571.1-1.127.109-.565.354-1.085.246-.52.61-.961.364-.442.82-.783.465-.353.995-.571.518-.227 1.091-.32.554-.09 1.123-.041z"/><path fill="#e06458" d="m451.186 176.415-2.438 2.005q-2.427 2.013-4.83 5.362-2.392 3.348-4.177 6.368-1.784 3.03-3.9 7.535-2.106 4.503-2.782 6.99-.667 2.477-1.064 6.141-.388 3.654-.81 6.244-.412 2.6-.294 5.082.13 2.49 2.205.947 2.086-1.544 4.675-1.594 2.6-.05 6.57-.079 3.96-.027 7.507-.251 3.527-.222 7.007-1.515 3.471-1.292 4.981-2.301 1.51-1.019 2.29-1.325.783-.296 1.614-.336.84-.04 1.65.193.8.235 1.495.703.685.479 1.19 1.148.497.68.764 1.477.258.796.248 1.632t-.276 1.63q-.276.794-.788 1.453-.52.67-1.215 1.128-.694.467-1.505.686t-1.652.16q-.83-.051-1.61-.37-.778-.317-1.41-.862-.634-.555-1.064-1.273-.42-.718-.6-1.544-.17-.816-.069-1.652.1-.836.451-1.588.36-.763.95-1.36.577-.606 1.32-.989.742-.392 1.574-.512.83-.13 1.65.011.831.142 1.569.544.736.393 1.306 1.005.57.623.914 1.38.345.767.435 1.602.081.836-.112 1.652-.183.815-.619 1.526-.445.722-1.081 1.254-.645.542-.646.532l-2.196 1.174q-2.188 1.163-4.607 2.04-2.41.874-4.957 1.322-2.547.437-6.117.915t-7.75 1.163-7.26.858q-3.078.174-6.61.064-3.524-.12-6.235-1.466-2.712-1.355-3.904-3.53-1.19-2.164-1.124-4.796t.767-5.817q.69-3.183.938-5.815.246-2.642.883-4.743.638-2.09 1.669-5.663 1.04-3.573 2.25-5.595 1.218-2.024 2.297-4.313 1.079-2.3 2.735-5.669 1.657-3.358 3.538-6.328 1.89-2.981 3.571-4.442 1.683-1.46 4.073-3.53 2.402-2.06 2.89-2.375.479-.324 1.031-.515.553-.19 1.12-.252.587-.053 1.16.035.582.078 1.12.301.537.224 1.006.565.48.34.85.793.38.441.639.967.258.525.379 1.085t.114 1.144q-.017.586-.177 1.146-.15.57-.437 1.074-.276.512-.673.938z"/><path fill="#e06458" d="m491.991 179.174-.26 3.81q-.27 3.812-.406 6.361t-.548 5.521q-.413 2.962-2.202 7.421l-3.093 7.649q-1.293 3.188-2.13 5.582-.845 2.405-1.655 5.692-.81 3.297-1.128 4.347-.307 1.06-.612 1.585-.294.535-.71.973-.414.447-.922.774-.506.336-1.078.539-.572.193-1.18.249-.606.066-1.21-.03-.593-.086-1.16-.316-.56-.231-1.05-.59-.492-.36-.884-.82-.393-.47-.654-1.015-.27-.544-.394-1.134-.136-.6-.12-1.204.014-.606.181-1.197.158-.58 1.789-3.443 1.622-2.852 5.078-6.134 3.466-3.283 6.357-5.84 2.902-2.548 7.048-5.402 4.155-2.865 8.728-5.594 4.57-2.74 7.187-4.401 2.614-1.672 5.132-2.941 2.53-1.26 6.82-1.304 4.3-.034 6.044 2.774 1.744 2.819 1.894 5.307t-.117 6.159q-.266 3.66-.427 5.79-.15 2.138.038 4.713.19 2.575.589 5.237.408 2.651-.934.665-1.332-1.988 2.166-2.378 3.5-.38 5.81-.771 2.312-.392 4.548-.926 2.236-.525 5.083-1.538t3.846-1.172q.998-.168 1.991-.005.994.164 1.88.631.896.476 1.589 1.206t1.113 1.64q.422.92.54 1.912.109 1.004-.106 1.993-.215.98-.736 1.84-.519.872-1.283 1.518-.774.657-1.71 1.03-.934.373-1.934.432-1.01.049-1.975-.219-.974-.266-1.81-.83-.836-.562-1.445-1.361-.611-.809-.936-1.76-.314-.951-.323-1.956 0-1.016.32-1.966t.936-1.761q.607-.8 1.44-1.364.835-.563 1.8-.839.968-.266 1.98-.215 1 .053 1.936.424t1.71 1.021q.765.652 1.282 1.52.526.86.743 1.842t.105 1.99q-.103.997-.527 1.908-.423.92-1.118 1.65-.686.728-1.58 1.208l-.884.468-3.304 1.072q-3.294 1.062-5.823 1.769-2.528.707-7.37 1.595-4.853.888-7.076.979-2.233.101-6.05-1.516-3.815-1.608-4.749-4.374t-.99-5.143q-.048-2.379.027-5.676.085-3.298.623-7.33.528-4.03 1.302-6.91t-1.472-2.074q-2.256.808-4.873 2.189-2.607 1.369-6.784 4.216-4.179 2.838-7.745 5.75-3.567 2.911-6.094 5.388-2.548 2.48-5.043 5.537t-3.628 5.03q-1.142 1.985-1.438 2.51-.303.536-.719.974-.414.447-.922.774-.506.336-1.078.539-.572.193-1.18.249-.606.066-1.21-.03-.593-.086-1.16-.316-.56-.231-1.05-.59-.492-.36-.884-.82-.383-.471-.654-1.015-.27-.544-.394-1.134-.136-.6-.12-1.204.014-.606.181-1.197.158-.58 1.148-2.398.98-1.806 1.733-4.05.753-2.235 1.806-4.582 1.063-2.349 2.288-5.338 1.234-2.99 2.33-6.791 1.097-3.8 1.539-6.494t.761-4.941.278-6.065q-.032-3.81.048-4.371.091-.553.306-1.08.214-.526.548-.974.332-.459.766-.818.443-.37.949-.616t1.057-.366 1.115-.1q.566.018 1.105.17.55.153 1.043.43.493.28.907.667.404.389.717.858.303.48.492 1.012.178.534.229 1.092z"/><path fill="#e06458" d="m548.503 205.33 2.376-.067q2.378-.057 4.53-.25l4.893-.42q2.73-.237 4.943-.517 2.214-.27 5.771-.485 3.558-.216 6.634-.51 3.077-.293 5.51-1.13 2.445-.829.482-3.352-1.954-2.524-5.687-3.557-3.743-1.022-6.181-.969t-5.433.359q-2.995.304-4.879 1.293-1.884.99-3.44 3.623-1.554 2.633-2.133 5.643-.58 3-.954 5.666-.364 2.675-.322 5.004.032 2.33 2.252 1.848 2.21-.492 4.428-.26 2.208.233 6.365.346 4.146.113 7.479-.138 3.333-.241 5.655-.533 2.333-.284 4.456-1.017 2.134-.735 3.863-2.32 1.72-1.575 3.01-2.56 1.302-.986 2.162-1.683.849-.706 1.883-1.09t2.137-.423 2.163.279 1.954.954q.904.636 1.555 1.531.65.896.985 1.945.325 1.052.305 2.16-.022 1.099-.392 2.135-.38 1.047-1.06 1.906-.69.87-1.611 1.472-.931.594-1.998.87-1.066.277-2.171.196-1.106-.081-2.118-.515-1.023-.432-1.846-1.157-.824-.736-1.37-1.692-.557-.956-.765-2.04-.218-1.082-.076-2.184.143-1.092.62-2.08.484-.997 1.264-1.786.77-.778 1.762-1.278.982-.498 2.071-.657 1.1-.15 2.188.044 1.078.205 2.042.744.974.538 1.716 1.353t1.184 1.823q.442 1.018.54 2.114.09 1.097-.166 2.17-.256 1.075-.848 2.014l-.593.93q.01-.002-2.25 1.974t-4.265 3.239q-2.005 1.273-5.233 2.851-3.238 1.589-5.304 2.105-2.068.506-4.5.71-2.442.204-5.003.33-2.553.117-6.2.06-3.639-.068-5.998-.023-2.357.055-4.906-.07-2.56-.136-4.783-.417-2.213-.283-6.09-2.357-3.886-2.073-5.185-4.215-1.297-2.133-1.683-5.22-.394-3.075-.167-6.087.237-3.003 1.15-7.015t1.682-6.74q.779-2.74 1.948-4.668 1.17-1.917 2.946-4.363 1.768-2.435 3.516-3.66 1.757-1.238 5.33-2.229t6.9-1.212q3.315-.228 5.664-.272 2.359-.045 5.826.665t8.408 3.05q4.942 2.351 6.891 4.644 1.96 2.302 2.879 5.673t.38 6.648q-.542 3.257-3.17 5.735-2.627 2.488-6.636 3.366-4.019.878-7.097 1.243-3.069.363-6.632.9-3.553.537-5.817.712-2.264.176-5.15.459-2.877.282-5.35.38-2.465.096-4.845.042-2.36-.056-2.96-.121-.592-.077-1.158-.287-.556-.211-1.055-.55-.49-.339-.89-.788-.401-.45-.68-.982-.278-.523-.423-1.111-.143-.578-.147-1.171.005-.604.143-1.183.149-.579.423-1.112.274-.532.677-.988.394-.446.89-.791.487-.335 1.047-.546.56-.222 1.155-.297zm55.656-15.088 2.082-.276q2.092-.288 6.182.606t6.229 2.714q2.147 1.799 3.155 4.506 1.007 2.697 1.617 6.191.612 3.505.857 6.134.246 2.639.481 4.806.245 2.166.48 4.424t-4.181 2.063q-4.418-.204-1.271-4.479 3.146-4.284 5.148-6.413 1.991-2.137 4.584-4.662 2.583-2.523 5.325-5.617t4.446-4.446q1.705-1.341 4.4-2.086 2.696-.746 4.841-.254 2.155.48 3.905 3.63 1.76 3.148 2.01 6.843.24 3.695.099 5.914-.152 2.219-.346 4.785t-.486 5.444q-.3 2.88-3.314.32-3.004-2.561-1.135-4.987 1.87-2.426 4.331-5.6 2.472-3.175 4.641-5.986 2.18-2.811 3.328-4.747 1.149-1.925 5.488-2.909t6.803.962q2.463 1.935 3.24 4.647t1.401 6.326q.625 3.624 1.852 7.243 1.238 3.617 3.385 2.64 2.158-.969 4.573-1.24 2.415-.273 4.63-.714 2.224-.453 4.8-1.276 2.576-.833 4.762-2.186 2.176-1.363 4.864-3.103 2.698-1.742 4.159-3.389 1.47-1.648 1.018-4.144-.442-2.497-2.007-.516-1.574 1.991-3.884 5.088-2.308 3.108-2.906 5.657-.61 2.54-1.336 5.114t-.554 5.09-1.079.54q-1.25-1.978 2.322-1.5 3.573.477 6.893.58 3.312.113 6.958.07 3.636-.053 9.892-.33 6.267-.278 13.486-.488 7.23-.211 11.809-.376 4.59-.156 7.296-.52 2.707-.365 4.712-.703 2.016-.33 2.716-.275t1.353.326 1.177.738q.533.465.891 1.08.348.606.484 1.305.145.689.05 1.393-.085.693-.398 1.33-.303.637-.801 1.144-.5.497-1.129.816-.63.32-1.322.425-.704.097-1.391-.03-.698-.125-1.319-.47-.61-.346-1.089-.858-.479-.521-.76-1.174-.282-.644-.348-1.35-.066-.698.1-1.39.168-.682.546-1.276.367-.603.922-1.046.545-.451 1.203-.693.656-.253 1.367-.28.702-.025 1.378.183.675.198 1.253.608.577.4.99.969.425.577.639 1.248.203.672.2 1.377-.014.705-.255 1.365-.239.67-.682 1.221-.432.56-1.025.936-.592.386-1.277.561l-.684.185-2.029.029q-2.038.03-4.79.158-2.763.129-7.366.719-4.602.6-11.63 1.363-7.019.771-13.295 1.794l-10.023 1.621q-3.748.598-8.02 1.173-4.264.573-7.751.227-3.487-.336-6.374-1.079-2.886-.732-4.685-3.032-1.807-2.288-2.256-4.573-.46-2.284-.46-5.251-.01-2.966.387-5.242.387-2.275 1.37-5.36.973-3.083 2.107-6.163 1.136-3.07 3.117-5.76t3.557-4.58q1.566-1.88 3.967-3.116 2.391-1.226 4.725-1.5 2.324-.281 5.994-.197t6.22 1.337q2.56 1.25 4.19 3.84 1.62 2.6 1.893 4.935.274 2.344.23 4.531-.034 2.187-1.631 6.192-1.607 4.007-4.025 6.291-2.428 2.286-4.382 3.745t-4.892 3.207q-2.949 1.748-5.06 2.872-2.12 1.126-4.598 1.938-2.486.813-5.852 1.5-3.364.697-6.549 1.012-3.185.306-5.91.511-2.733.206-4.912-.13-2.18-.338-4.253-1.561-2.073-1.213-3.693-4.276-1.621-3.074-2.332-5.18-.722-2.104-1.515-5.8-.783-3.687-.072-6.41.711-2.712 3.567-2.911 2.856-.19 1.574 1.81-1.28 2.01-3.505 4.777-2.215 2.765-3.57 4.542-1.358 1.766-3.554 4.52-2.196 2.752-4.954 4.772-2.768 2.02-5.204 2.747-2.437.717-4.715-.253-2.289-.978-3.088-6.122-.799-5.134-.717-7.718.083-2.574 1.573-5.894 1.48-3.32-1.306-.542-2.788 2.767-5.082 5.54t-4.007 4.69-3.716 4.688q-2.012 2.784-4.457 5-2.454 2.228-6.178 1.556-3.734-.67-4.552-3.388t-1.07-4.954q-.262-2.225-.505-4.37-.243-2.147-.769-6.244-.535-4.097-1.593-6.899-1.058-2.792-3.142-2.626-2.073.175-2.698.162-.634-.002-1.245-.167-.62-.154-1.176-.456-.556-.301-1.026-.733-.468-.422-.817-.948-.358-.524-.574-1.124-.215-.59-.283-1.217-.068-.626.015-1.249.082-.632.32-1.221.228-.588.595-1.1.366-.523.844-.937t1.05-.698q.562-.292 1.181-.43zM548 29.73l2.01-.06q2.01-.06 5.9-.16 3.88-.1 7.49-.43t6.2-.46q2.6-.14 6.23-.31 3.64-.16 6.88-.25 3.25-.09 6.27-.14 3.01-.05 3.99.11t1.85.63q.88.46 1.56 1.18.69.72 1.1 1.62.42.9.53 1.89.11.98-.11 1.94-.21.97-.72 1.82t-1.26 1.49q-.76.65-1.68 1.01-.92.37-1.91.43-.99.05-1.95-.21-.95-.27-1.78-.82-.82-.56-1.42-1.35t-.92-1.73q-.31-.93-.31-1.92-.01-.99.31-1.93t.92-1.73T588.6 29t1.77-.82q.96-.27 1.95-.22.99.06 1.91.42.92.37 1.68 1.01.75.64 1.27 1.49.51.85.72 1.82.22.97.11 1.95t-.52 1.88q-.42.9-1.1 1.62t-1.56 1.19q-.87.46-1.85.62l-.98.17-3-.05q-3-.04-6.19-.1-3.19-.07-6.61-.08-3.42-.02-5.56.09-2.15.11-6.5.35-4.35.25-8.23.15-3.89-.1-5.9-.16t-2.64-.14-1.22-.3q-.59-.23-1.12-.59-.52-.36-.94-.84-.42-.47-.72-1.03-.29-.57-.45-1.18-.15-.62-.15-1.25t.15-1.25q.16-.61.45-1.18.3-.56.72-1.03.42-.48.94-.84.53-.36 1.12-.59.59-.22 1.22-.3z"/><path fill="#e06458" d="m582.1 12.28-1.43 2.59q-1.43 2.59-2.94 5.01-1.53 2.42-3.73 5.38-2.2 2.95-4.99 6.63-2.8 3.69-4.03 6.08-1.22 2.39-2.64 4.96-1.42 2.56-3 6.4-1.59 3.84-1.76 6.14-.16 2.3 3.05 2.86 3.2.56 7 .54 3.8-.01 7.62-.5 3.81-.49 6.24-1.5 2.44-1 3.47-1.17t2.06 0q1.04.17 1.96.66t1.64 1.25 1.16 1.7q.44.95.56 1.99.11 1.04-.12 2.06-.22 1.03-.76 1.92-.54.9-1.33 1.57-.8.68-1.77 1.07t-2.02.44q-1.04.06-2.05-.22t-1.87-.87q-.87-.58-1.5-1.41-.63-.84-.97-1.83-.33-.99-.33-2.03 0-1.05.33-2.04t.97-1.82q.63-.84 1.49-1.42.87-.59 1.88-.87 1-.28 2.05-.22 1.04.05 2.01.44.98.39 1.77 1.06.8.68 1.34 1.58.54.89.76 1.91.23 1.02.12 2.06-.12 1.04-.56 1.99t-1.15 1.71q-.72.76-1.65 1.25l-.92.49-3.98 1.18q-3.97 1.17-6.97 1.54-3.01.36-6.1.3-3.09-.07-6.71-.13-3.61-.05-5.96-.08-2.34-.03-5.39-.87-3.05-.83-4.32-2.63-1.28-1.79-1.56-5.47-.29-3.67.19-6.16.47-2.48 1.16-4.64.68-2.16 1.72-4.06 1.04-1.91 2.14-3.95 1.11-2.04 2.6-4.47 1.49-2.44 3.05-5.04 1.56-2.61 3.97-6.62 2.41-4.02 4.34-7 1.92-2.98 3.34-5.06 1.43-2.08 2.87-4.66 1.45-2.58 1.78-3.04.33-.45.77-.82.43-.36.94-.62.5-.25 1.06-.37.55-.12 1.11-.11t1.11.16 1.04.43q.5.27.91.66.42.38.73.86.31.47.49 1.01.19.53.25 1.09.05.56-.03 1.12t-.29 1.08zM452.64 117.81l-1.41 2.46q-1.4 2.46-2.27 5.63-.86 3.16-.97 5.49-.12 2.33-.11 5.77.02 3.44 2.08 5.23 2.07 1.79 4.92 1.95 2.86.17 5.24.27 2.39.1 5.15.21 2.76.12 5.54-.55 2.77-.68 5.24-2.82t3.76-4.42q1.28-2.28 1.96-4.57t.77-4.78q.08-2.49-2.5-2.77t-4.82-.49q-2.23-.21-5.28-.77-3.05-.57-6.12-1.66t-9.27-1.37q-6.2-.29-7.02-.37-.81-.08-1.57-.42-.75-.34-1.36-.9-.6-.57-1-1.29-.4-.73-.54-1.54-.14-.82-.01-1.62.12-.82.5-1.56.38-.73.97-1.31.6-.57 1.34-.93.75-.35 1.56-.45.82-.1 1.63.07t1.53.59q.71.42 1.25 1.04.54.63.86 1.39.31.77.36 1.59.06.82-.16 1.62-.21.8-.67 1.48-.45.69-1.11 1.2-.65.51-1.43.78t-1.61.28q-.82.01-1.6-.25-.79-.25-1.45-.74-.66-.5-1.13-1.18-.48-.68-.7-1.47-.23-.8-.2-1.62.04-.82.34-1.59.29-.77.82-1.41.53-.63 1.24-1.07.7-.43 1.51-.62l.79-.18 5.85-.7q5.86-.71 8.46-.21 2.59.5 4.67 1.19t4.62.98q2.54.28 5.31.41 2.76.12 5.14.38 2.39.27 4.58.58 2.19.32 4.45 1.91 2.25 1.57 3.21 3.57.95 2 1.09 4.78t-.14 6.05q-.28 3.28-1.62 7.19-1.33 3.92-2.52 6.13-1.19 2.2-4.04 5.13-2.85 2.92-5.17 4.76t-5.57 3.23q-3.24 1.39-5.64 1.44-2.41.04-5.23.13-2.82.08-7.43-.01-4.6-.08-8.89-1-4.29-.91-7.26-2.95t-4.16-4.45q-1.18-2.41-1.21-5.3t.12-6.6q.14-3.71.35-6.06.22-2.35 1.27-5.53 1.05-3.17 1.9-5.35t2.22-4.69q1.36-2.49 1.74-3.01.37-.51.86-.92t1.06-.69 1.2-.42q.61-.14 1.25-.12.63.02 1.25.18.61.17 1.17.48t1.02.75q.47.43.82.97.35.53.56 1.13.21.61.27 1.24t-.03 1.26q-.1.63-.34 1.22zM243.998 81.84l-2.62.04q-2.63.04-6.33.94-3.7.91-6.95 2.33-3.26 1.41-6.39 2.88-3.14 1.47-6.72 4-3.58 2.52-5.8 4.31t-3.7 4.56q-1.49 2.77-3.08 5.42-1.59 2.64-3.04 5.41-1.45 2.76-1.45 5.01 0 2.26.03 4.95.03 2.68.11 4.95.09 2.27.6 4.83t3.2 2.78q2.7.21 6.28 1.3t7.23 1.37 6.13.39q2.47.12 5 .21 2.52.08 6.57-.85 4.04-.93 7.14-1.31 3.1-.37 6.21-1.96 3.12-1.6 5.15-3.98 2.02-2.38 2.71-3.03.7-.65 1.57-1.05.86-.4 1.81-.5t1.88.11 1.75.7q.81.5 1.43 1.23.61.73.96 1.61.35.89.4 1.84t-.21 1.87-.8 1.71q-.54.78-1.3 1.36-.76.57-1.66.87-.91.3-1.86.3-.96 0-1.86-.31t-1.66-.89q-.75-.58-1.29-1.37-.53-.79-.78-1.71t-.2-1.87q.06-.95.41-1.84.36-.88.98-1.61.62-.72 1.44-1.21t1.75-.69 1.88-.09q.95.1 1.81.51.87.4 1.55 1.06.69.66 1.14 1.5.44.85.59 1.79t-.01 1.88q-.15.94-.6 1.78l-.45.84-1.76 2.09q-1.75 2.09-4.04 3.92-2.28 1.84-4.55 2.98-2.26 1.15-4.99 2.16-2.72 1.01-5 1.34-2.29.33-5.46 1.35-3.18 1.02-5.68 1.39-2.5.38-5.1.43t-7.36-.01q-4.77-.06-7.93-.33t-5.76-1.14q-2.6-.88-5.14-1.31-2.53-.43-6.01-2.41-3.47-1.98-5.56-5.72-2.1-3.73-2.44-5.97-.34-2.23-.27-4.36.08-2.13.22-4.42.14-2.3.46-6.18.33-3.88.95-6.2.61-2.32 2.45-5.16 1.83-2.84 4.35-7.2 2.51-4.36 4.3-6.68 1.8-2.32 4.36-4.54 2.57-2.22 4.81-3.74t4.14-2.64q1.9-1.13 5.29-3.18 3.39-2.04 7.75-3.56 4.36-1.53 6.84-1.99 2.49-.46 4.69-.75 2.2-.3 4.85-.26 2.64.04 3.22.11t1.12.28q.55.2 1.03.53.48.34.87.77.38.44.66.96.27.52.41 1.08.14.57.14 1.15t-.14 1.15q-.14.56-.41 1.08-.28.52-.66.96-.39.43-.87.77-.48.33-1.03.53-.55.21-1.13.28z"/><path fill="#e06458" d="m273.608 107.275-.35 3.09q-.35 3.08-1.17 6.43-.81 3.34-1.36 6.99t-.61 6.37q-.07 2.71.06 5.27t2.97 2.23q2.84-.32 5.56-1.24 2.72-.93 4.7-1.96 1.97-1.04 3.91-2.59 1.94-1.54 3.78-3.11 1.84-1.58 3.38-3.12 1.55-1.53 4.12-4.96 2.58-3.42 3.48-5.41t2.11-4.31 2.13-5.78q.92-3.47 1.35-5.41.42-1.94.75-2.62.32-.69.8-1.28.48-.58 1.09-1.04.61-.45 1.3-.75.7-.3 1.45-.42t1.5-.06q.76.06 1.48.3t1.36.65q.64.4 1.17.95.52.55.9 1.2.38.66.59 1.39t.24 1.48q.03.76-.12 1.5-.15.75-.71 3.32-.56 2.56-.97 5.81-.4 3.25-.58 6.88-.17 3.63-.17 6.77-.01 3.15.03 5.66.04 2.52 3.15 2.1 3.11-.43 5.45-.42t3.39.2 1.98.7q.94.52 1.66 1.3.72.79 1.15 1.76t.53 2.03q.09 1.06-.15 2.1-.25 1.04-.81 1.94t-1.39 1.58q-.82.67-1.81 1.05-1 .38-2.06.42-1.07.04-2.09-.26t-1.89-.91-1.5-1.47-.96-1.87q-.32-1.02-.3-2.08.01-1.07.37-2.07t1.01-1.84q.66-.84 1.55-1.42.89-.59 1.92-.85 1.03-.27 2.1-.2 1.06.08 2.04.49t1.78 1.11 1.34 1.62q.53.92.74 1.97.22 1.04.08 2.1-.13 1.05-.59 2.01t-1.21 1.72q-.74.76-1.69 1.25-.95.48-2 .64l-1.06.15-2.37-.06q-2.37-.07-5.03-.04t-5.45-.33-5.6-2.36-3.94-4.38-1.23-5.26q-.09-2.89-.04-5.66.05-2.78.15-6.45.09-3.67.51-7.24t.77-7 1.08-5.59 1.06-2.84q.32-.69.8-1.28.48-.58 1.09-1.04.6-.45 1.3-.75t1.45-.42 1.5-.06q.76.06 1.48.3t1.36.65q.64.4 1.16.95.53.54.91 1.2t.59 1.39.24 1.48q.03.76-.12 1.5-.15.75-.38 1.65-.23.91-1.36 3.94-1.13 3.02-1.84 5.13t-1.75 4.24-3.86 7.07q-2.82 4.95-4.25 7.32-1.43 2.38-3.21 4.35-1.79 1.96-3.65 3.8-1.86 1.83-4.58 3.94-2.73 2.1-5.33 3.43-2.6 1.34-4.75 2.38-2.14 1.05-4.23 1.49-2.09.45-4.48.25-2.4-.19-5.71-1.02-3.31-.82-6.47-2.6t-4.31-3.93q-1.16-2.16-1.21-4.99-.06-2.82.2-5.33.26-2.5.55-4.68.29-2.17 1.18-5.9.9-3.73 1.51-6.43t.85-5.79q.23-3.07.37-3.68.13-.61.4-1.17.28-.56.68-1.03.4-.48.9-.85.51-.36 1.08-.6.58-.24 1.19-.33.62-.09 1.23-.03.62.06 1.21.26.59.21 1.11.55t.94.8q.43.45.73.99.31.55.47 1.15.17.6.18 1.22z"/><path fill="#e06458" d="m370.567 95.411-2.7 1.97q-2.69 1.97-6.34 5.04t-6.21 4.86q-2.57 1.79-4.1 3.54-1.53 1.76-1.85 4.01-.32 2.24 1.6 4.33 1.92 2.08 3.78 4.96 1.87 2.88 2.38 6.13.52 3.25.2 5.49-.32 2.25-2.01 5.65-1.69 3.39-3.87 5.63-2.17 2.24-5.49 5.11-3.31 2.88-6.77 5-3.46 2.13-4.5 2.45-1.04.33-2.12.31-1.09-.03-2.11-.39-1.02-.37-1.87-1.05-.85-.67-1.44-1.58t-.86-1.97q-.26-1.05-.18-2.13t.5-2.08q.43-1 1.15-1.81.72-.82 1.66-1.36t2-.75q1.07-.21 2.14-.07 1.08.14 2.06.62.97.48 1.74 1.24.78.76 1.26 1.73.49.97.64 2.05.16 1.07-.04 2.14-.2 1.06-.73 2.01t-1.33 1.68-1.8 1.16q-.99.44-2.08.53-1.08.1-2.13-.16-1.06-.25-1.97-.83-.92-.58-1.61-1.43-.68-.84-1.06-1.85-.38-1.02-.42-2.11-.03-1.08.28-2.12t.94-1.92q.63-.89 1.51-1.53l.87-.64q0 .01 2.73-1.68 2.73-1.68 4.86-3.67t3.72-3.43q1.58-1.44 3.01-3.45 1.43-2 .07-3.8-1.36-1.81-2.18-4.01-.83-2.2-2.48-4.67t-1.96-4.74q-.32-2.28.37-4.89.69-2.6 1.95-5.26 1.27-2.66 3.53-4.79 2.25-2.13 4.46-3.79t4.84-3q2.62-1.35 4.52-2.99 1.89-1.64 4.47-3.77 2.57-2.14 3.11-2.46.54-.33 1.14-.51.6-.19 1.23-.23.61-.03 1.23.08.62.12 1.19.38.58.26 1.07.65t.88.88q.39.5.64 1.07.26.58.37 1.19.11.62.07 1.24-.04.63-.22 1.23-.19.6-.52 1.14-.33.53-.77.98zm51.518-.62-2.63 2q-2.61 2-4.63 4.97-2.01 2.97-3.86 6.12t-3.51 6.45q-1.65 3.3-2.85 6.13t-2.6 5.81q-1.41 2.99-2.52 5.36t-1.68 4.69q-.58 2.33-1.22 5.21-.63 2.88-.49 5.4.15 2.52 2.02 1.36 1.88-1.17 4.77-1.72 2.89-.54 5.35-2.05 2.47-1.51 3.43-1.93.97-.43 2.03-.52 1.05-.1 2.08.15t1.93.81 1.57 1.38q.66.82 1.03 1.81.38.99.41 2.05.04 1.06-.26 2.07-.3 1.02-.91 1.89-.61.86-1.46 1.49-.86.62-1.87.94t-2.06.3q-1.06-.02-2.06-.38-1-.35-1.83-1.01t-1.41-1.55q-.57-.88-.84-1.91-.26-1.02-.19-2.08.08-1.06.49-2.03.41-.98 1.11-1.77.7-.8 1.62-1.33t1.96-.73q1.04-.21 2.09-.08 1.05.14 2 .6t1.71 1.21q.74.74 1.22 1.68.48.95.63 2 .15 1.04-.04 2.09-.19 1.04-.7 1.96-.52.93-1.29 1.64l-.78.72-3.27 1.7q-3.27 1.7-5.62 2.35-2.35.64-4.47 1.04t-4.73.32q-2.62-.09-5.87-.43-3.25-.33-5.72-2.92-2.46-2.59-2.48-5.84-.01-3.25.4-5.66.4-2.41 1.57-5.41t2.19-6.03q1.03-3.03 2.31-5.19 1.28-2.17 2.73-5.02t2.84-5.68q1.4-2.83 3.08-6.4 1.68-3.58 3.54-6.93t4.43-7.61 5.22-6.36q2.65-2.11 3.11-2.38.46-.28.97-.44.51-.15 1.04-.18.52-.03 1.05.06.52.1 1.01.32t.91.55q.41.33.74.75t.55.91.31 1.01q.1.53.06 1.05-.03.53-.19 1.04t-.44.97-.65.83zm197.263-52.638-2.12.05q-2.11.04-3.84 1.91t-2.44 4.02q-.72 2.15-.8 4.69-.08 2.55 2.26 3.7 2.34 1.16 5.53 2.09 3.2.94 5.62.96 2.41.02 4.65.02 2.23 0 2.79-2.54.56-2.53.62-4.92.05-2.4-.55-4.78-.59-2.38-3.29-3.05-2.69-.68-3.71-1.24-1.02-.57-1.8-1.43t-1.25-1.92q-.47-1.07-.57-2.23-.1-1.15.17-2.28t.89-2.12q.62-.98 1.52-1.72.91-.73 2-1.14 1.08-.41 2.24-.45t2.28.29q1.11.34 2.06 1.01t1.64 1.61q.68.94 1.03 2.06.35 1.11.33 2.26-.03 1.16-.42 2.26-.39 1.09-1.12 2-.72.92-1.7 1.55-.97.63-2.1.92t-2.29.2q-1.16-.08-2.22-.54-1.07-.45-1.95-1.22-.87-.77-1.45-1.78t-.8-2.15q-.23-1.14-.08-2.29t.66-2.2q.51-1.04 1.33-1.87.81-.83 1.85-1.35 1.03-.53 2.18-.69 1.16-.17 2.3.04l1.14.22 2.02 1.05q2.02 1.05 5.44 2.93 3.41 1.89 5.43 5.21 2.03 3.34 2.37 7.07.34 3.74.18 6.22-.16 2.49-.98 5.78-.82 3.28-2.88 6.88-2.07 3.6-4.44 5.32-2.37 1.71-4.48 2.19-2.12.48-4.7.43-2.59-.04-4.92-.23-2.34-.19-4.75-.64-2.41-.46-4.77-1.3-2.36-.85-5.86-2.8-3.49-1.96-5.76-4.37-2.27-2.4-3.37-6.14-1.1-3.73-.6-7.48.49-3.74 2.09-7.15 1.59-3.41 2.88-5.32 1.3-1.89 4.28-3.75 2.98-1.87 5.44-2.2 2.47-.32 4.63-.28 2.16.05 2.79.13t1.23.3q.6.23 1.12.59.53.36.95.84t.72 1.04q.3.57.45 1.19t.15 1.25-.15 1.25-.45 1.19q-.3.56-.72 1.04t-.95.84q-.52.36-1.12.59-.6.22-1.23.3zm-104.101 76.559-.11 3.42q-.12 3.43-.04 5.57t.17 6.62q.1 4.47-.49 8.88-.59 4.4-1.07 6.6-.47 2.19-1.16 5.25-.68 3.05-.96 3.69-.28.63-.7 1.18t-.96.99q-.54.43-1.17.72t-1.31.42q-.69.13-1.38.1-.69-.04-1.36-.24-.66-.2-1.26-.55-.6-.36-1.09-.84-.5-.49-.86-1.08-.37-.59-.58-1.25t-.26-1.36q-.05-.69.07-1.37.12-.69 1.38-3.06 1.25-2.38 4.37-6.31 3.12-3.94 6.38-7.63 3.27-3.68 5.54-6.38 2.26-2.7 3.99-5.12 1.72-2.42 3.81-4.77 2.09-2.34 5.71-5.93 3.62-3.6 5.29-5.45 1.67-1.84 5.22-2.89t6.22.3q2.67 1.34 3.59 3.39.93 2.04 1.11 4.68.19 2.63.07 6.02-.11 3.38-.09 5.82.03 2.44-.06 5.54-.08 3.1-.05 5.47.03 2.36-.62 5.36-.65 2.99-.85 6.29-.19 3.3-.21 3.53-.02.24-.16.91-.13.67-.43 1.28-.29.62-.72 1.15t-.97.94q-.55.42-1.18.68-.62.27-1.3.39-.67.11-1.35.05-.68-.05-1.33-.26-.65-.22-1.23-.58-.58-.37-1.05-.86t-.82-1.08q-.34-.59-.53-1.25-.19-.65-.22-1.33-.03-.69 1.54-3.34 1.57-2.66 2.61-4.93 1.05-2.27 2.74-5.19t3.31-5.93q1.61-3.01 3.04-5.17 1.42-2.16 2.76-4.19 1.35-2.03 2.95-4.14 1.6-2.1 3.36-3.53 1.77-1.44 4.13-3.71 2.37-2.28 4.81-3.45t5.05-1.3 5.05 1 4.02 2.59q1.58 1.47 3.34 3.79 1.77 2.32 2.24 5.09.47 2.78.67 5.72.19 2.93.24 5.72.06 2.78.02 4.96t-.09 4.47-.37 5.78q-.31 3.5-.4 5.84-.1 2.34-.3 1.43-.21-.92.83-.56 1.03.35 1.9 1.01.86.67 1.47 1.57.61.91.9 1.96.29 1.06.22 2.15-.06 1.09-.47 2.1t-1.12 1.84-1.65 1.39-2 .79q-1.07.23-2.16.11-1.08-.12-2.07-.59-.99-.46-1.78-1.22-.79-.75-1.3-1.72-.5-.96-.68-2.04-.17-1.08.01-2.16.18-1.07.7-2.04.52-.96 1.31-1.71.8-.74 1.79-1.2 1-.45 2.08-.57 1.09-.11 2.15.13 1.07.24 2 .81.93.56 1.64 1.4.7.84 1.1 1.85.4 1.02.45 2.11.06 1.09-.24 2.14t-.91 1.95q-.62.9-1.49 1.56t-1.91 1q-1.04.35-2.13.34h-1.09l-2.43-.58q-2.44-.57-4.36-2.31t-2.79-5.49q-.87-3.76-.61-6.95t.53-5.51q.28-2.31.22-4.6-.05-2.28-.09-4.42-.05-2.15-.05-4.8.01-2.66.66-5.83.65-3.18-2.37-4.29-3.01-1.1-5.49.75-2.47 1.86-3.82 3.59-1.35 1.74-3.84 5.17-2.48 3.44-3.87 6.88-1.39 3.43-2.64 6.01-1.24 2.58-3.65 5.62-2.4 3.05-2.54 3.72-.13.67-.43 1.28-.29.62-.72 1.15t-.97.94q-.55.41-1.18.68-.62.27-1.3.39-.67.11-1.35.05-.68-.05-1.33-.26-.65-.22-1.23-.58-.58-.37-1.05-.86t-.82-1.08q-.34-.59-.53-1.25-.19-.65-.22-1.33-.03-.69.22-2.33.25-1.65 1.1-6.12.85-4.48.88-6.79.02-2.32-.08-5.4-.1-3.07-.11-5.48t-.2-7.16q-.19-4.74 2.03-4.66 2.21.09-.04 1.96t-4.08 3.29q-1.82 1.41-3.32 2.95-1.51 1.53-3.3 3.39-1.78 1.85-3.65 4.47-1.88 2.62-3.95 5.34-2.07 2.73-4.85 6.95-2.79 4.23-4.59 6.79-1.81 2.56-3.12 4.55t-1.59 2.63q-.28.63-.7 1.18t-.96.99q-.54.43-1.17.72t-1.31.42q-.69.13-1.38.1-.69-.04-1.36-.24-.66-.2-1.26-.55-.6-.36-1.09-.84-.5-.49-.86-1.08-.37-.59-.58-1.25t-.26-1.36q-.05-.69.07-1.37.12-.69.93-3.26.81-2.58 1.42-5.32t1.19-5.41q.58-2.68.68-7.15.09-4.48.17-6.62t-.04-5.57q-.11-3.42-.04-4.03.08-.62.3-1.2t.57-1.09.82-.92q.46-.41 1.01-.7t1.15-.44q.6-.14 1.22-.14t1.22.14q.6.15 1.15.44t1.01.7q.47.41.82.92t.57 1.09.3 1.2zM630.938 88.8l.67 2.03q.68 2.03 1.28 5.68.61 3.65.58 4.49-.03.83-.32 1.61-.29.79-.82 1.44t-1.23 1.09q-.71.45-1.52.65-.81.19-1.65.12-.83-.07-1.59-.41-.76-.33-1.38-.89t-1.03-1.29-.56-1.55q-.15-.83-.03-1.65.11-.83.49-1.58.37-.75.97-1.33.59-.59 1.34-.96.74-.37 1.57-.48.83-.1 1.65.06t1.55.58q.72.41 1.28 1.04.55.62.88 1.39t.39 1.6q.06.84-.14 1.65-.21.81-.66 1.51-.46.7-1.11 1.22-.66.52-1.44.81-.79.28-1.63.3-.83.02-1.63-.23-.79-.25-1.46-.74-.68-.49-1.16-1.18-.49-.68-.73-1.48l-.24-.8-.26-2.96q-.26-2.97-.76-5.04-.5-2.08-.59-2.65t-.04-1.14q.04-.57.23-1.12.18-.55.5-1.03.31-.49.72-.89.42-.4.92-.68.51-.29 1.06-.45.56-.16 1.13-.18t1.14.1q.56.12 1.08.37t.97.61q.44.37.79.83.34.47.57 1zm-14.066 30.821 2.35.3q2.36.3 6.49 1.2 4.14.9 5.71 2.76 1.57 1.85 1.85 5.9.27 4.05-1.35 7.36t-2.32 5.54q-.71 2.24-2.56 5.55-1.84 3.31-3.06 5.78t-2.51 5.58-1.75 1q-.46-2.1 1.68-2.42 2.13-.32 5.86-1.2 3.72-.88 5.87-1.75 2.14-.86 2.49-2.25.36-1.38.96-2.21.61-.82 1.45-1.41t1.82-.88q.98-.3 2.01-.26 1.02.04 1.98.4.96.37 1.75 1.02t1.33 1.52q.55.86.79 1.86.23 1 .14 2.02t-.51 1.96q-.41.93-1.1 1.69-.7.76-1.59 1.25-.9.5-1.91.68t-2.02.03q-1.02-.14-1.93-.61-.91-.46-1.63-1.19-.72-.74-1.16-1.66-.45-.92-.58-1.94t.08-2.02q.2-1 .71-1.89.52-.89 1.29-1.57.77-.67 1.71-1.07.95-.39 1.97-.47 1.02-.07 2.01.19 1 .26 1.85.82.86.56 1.5 1.36.63.81.97 1.77.35.97.36 1.99.02 1.03-.29 2.01l-.31.97-2.05 3.21q-2.05 3.21-5.19 4.82-3.14 1.6-6.52 2.31-3.39.71-6.77 1.54-3.38.84-5.85.62-2.48-.22-5.03-.88-2.56-.65-4-2.49-1.43-1.84-1.69-4.83-.26-3 1.37-6.36 1.63-3.35 2.88-6.07 1.25-2.71 2.45-5.16t2.16-5.7q.95-3.25 3.27-5.17 2.31-1.93.04-2.3l-4.6-.77q-2.33-.38-2.93-.54-.59-.17-1.13-.47-.54-.29-.99-.71t-.79-.94q-.33-.51-.54-1.09-.2-.58-.26-1.2-.06-.6.03-1.21t.32-1.18.59-1.07q.37-.49.84-.89t1.02-.67 1.15-.4q.6-.14 1.21-.12zm43.633 4.249-5.028.668q3.807-.215 8.358-.424 4.552-.208 8.239-.522t6.254-.266q2.578.057 6.202 1.95 3.621 1.874 4.006 4.549t-.742 5.007q-1.136 2.333-2.898 5.04-1.763 2.705-4.891 5.014t-6.581 4.388q-3.452 2.08-5.64 4.144-2.198 2.066-4.977 3.938-2.79 1.863-4.206 3.61-1.415 1.748-3.256-.713-1.83-2.452 2.046-2.895 3.876-.433 6.721-.623 2.835-.19 5.215-.414 2.379-.225 5.434-.427 3.066-.192 6.423-.393 3.347-.19 6.821-.623 3.475-.423 4.345-.369.87.055 1.676.388.807.332 1.466.9.66.578 1.096 1.329.446.75.62 1.597.185.855.079 1.72t-.48 1.655-.976 1.413q-.601.622-1.375 1.03-.775.398-1.635.533-.862.126-1.72-.02-.86-.147-1.624-.564-.775-.416-1.361-1.061-.595-.635-.955-1.433-.36-.789-.445-1.655-.087-.875.111-1.719.198-.853.657-1.592.46-.739 1.128-1.297.669-.559 1.48-.88.814-.312 1.685-.347.87-.036 1.708.203t1.55.741q.722.492 1.244 1.194.511.703.784 1.53t.258 1.693q-.004.875-.295 1.697-.28.822-.816 1.508-.534.695-1.26 1.18-.727.473-1.57.697l-.841.223-3.491.265q-3.492.254-6.822.724-3.331.46-6.376.86-3.046.402-5.434.637-2.388.236-5.267.59-2.88.355-6.192.492-3.314.126-6.153-.538-2.84-.675-3.083-6.398-.243-5.714 2.52-8.067 2.752-2.342 4.878-3.607 2.115-1.274 4.78-3.898 2.674-2.636 5.778-5.093 3.094-2.456 6.213-5.366t5.298-3.638q2.178-.738-.263-.93-2.431-.201-6.099.211-3.657.411-8.161 1.097-4.505.686-8.28 1.22 5.062-.329-4.35.53-.574-.014-1.132-.17-.557-.146-1.067-.427-.5-.282-.93-.672-.42-.39-.74-.871-.32-.491-.514-1.035-.184-.544-.24-1.112-.056-.567.018-1.137.084-.58.302-1.115.219-.534.555-1 .346-.465.78-.84.446-.376.963-.638.518-.252 1.078-.377l.56-.126zm65.181 11.447 2.93-.32q2.93-.31 5.8-.48 2.86-.17 5.4-.86 2.53-.7 2.37-2.84-.17-2.14.14-3.02t.88-1.61 1.35-1.25q.77-.51 1.67-.75t1.83-.18q.93.07 1.79.42.86.36 1.56.97t1.17 1.41.66 1.71q.19.92.08 1.84t-.51 1.76-1.05 1.51-1.48 1.1q-.82.42-1.74.56t-1.84-.02-1.73-.61q-.82-.44-1.45-1.13-.63-.68-1.01-1.53t-.47-1.78q-.09-.92.12-1.83.21-.9.7-1.7.49-.79 1.2-1.38.72-.6 1.59-.93t1.8-.37 1.82.22 1.66.79q.76.53 1.32 1.28.55.75.84 1.63.28.89.27 1.82l-.01.93-1.15 3.71q-1.15 3.71-3.08 5.77-1.93 2.05-3.96 2.8-2.04.74-4.68 1.14-2.64.39-5.2.52-2.56.12-5.48.49-2.93.37-3.54.37-.62 0-1.21-.15-.6-.15-1.15-.44-.54-.29-1-.7-.46-.42-.81-.93t-.57-1.08q-.21-.58-.28-1.2-.08-.6 0-1.21t.3-1.19.57-1.08q.36-.51.82-.92.47-.4 1.01-.69.55-.28 1.15-.43z"/><path fill="#e06458" d="m743.558 128.362-3.68-1.98q-3.69-1.99-5.92-2.54-2.23-.54-4.82-.68-2.59-.15-4.79 1.32t-4.99 5.17q-2.79 3.71-4.77 7.97-1.99 4.26-2.57 6.73-.59 2.48-1.15 5.29-.57 2.82 4.23 3.2 4.8.39 6.93.41t5.96.33q3.84.32 8.4.69t7.67.39q3.1.03 5.26-.35t5.42-1.24 5-2.02q1.75-1.16 2.58-1.44.83-.27 1.71-.27.87.01 1.7.29.83.29 1.53.82.69.54 1.18 1.26.49.73.72 1.58t.18 1.72q-.06.88-.38 1.69-.33.81-.91 1.48-.57.66-1.32 1.11-.76.45-1.61.63-.86.19-1.73.09t-1.67-.48q-.79-.37-1.42-.98-.64-.6-1.04-1.38-.41-.78-.55-1.64-.13-.87.01-1.73.15-.87.57-1.64.41-.77 1.05-1.37t1.44-.97q.8-.36 1.67-.45t1.73.1q.85.2 1.6.65.75.46 1.31 1.13.57.67.89 1.49t.36 1.69q.04.88-.2 1.72-.24.85-.73 1.57-.5.72-1.2 1.25l-.7.53q0-.01-4.62 1.6t-6.85 2.06q-2.22.45-5.05.76-2.82.31-5.93.33-3.11.03-7.68.4-4.56.36-8.41.67-3.84.31-5.98.32t-5.13.15q-2.99.13-5.32.13t-4.82-.48q-2.49-.49-4.37-2.11t-2.96-3.55q-1.08-1.94-1.22-5.29-.14-3.36.24-6.01.37-2.65 1.37-5.55 1.01-2.89 2.52-5.95 1.5-3.06 2.52-5.99 1.01-2.93 3.35-5.42 2.34-2.48 5.25-5.79 2.9-3.3 4.89-4.37 1.98-1.07 5.39-1.79 3.41-.73 7.02.01 3.62.73 6.39 1.64 2.77.9 6.7 2.35 3.93 1.44 4.45 1.76.53.32.97.75.43.44.75.96.32.53.5 1.12.18.58.22 1.2.04.6-.07 1.21-.11.6-.37 1.16-.25.56-.63 1.05-.38.48-.86.86t-1.04.63q-.57.26-1.17.37-.61.11-1.21.07-.61-.04-1.2-.22zM377.48 100.74l2.87-.26q2.88-.25 6.36-.58 3.48-.34 6.54-.49 3.07-.14 5.44-.26t4.68-.21 4.94-.16q2.63-.08 5.49-.18 2.85-.1 5.62-.17 2.76-.08 5.17-.12 2.4-.05 3.48.13 1.08.17 2.04.68.97.51 1.72 1.31.75.79 1.21 1.78.45.99.57 2.08.12 1.08-.11 2.14-.24 1.06-.8 2-.56.93-1.4 1.64-.83.71-1.84 1.11-1.02.4-2.11.46t-2.14-.23-1.95-.91q-.9-.61-1.56-1.48-.67-.87-1.01-1.9-.35-1.03-.35-2.12t.35-2.12q.35-1.04 1.01-1.9.66-.87 1.56-1.49.9-.61 1.96-.9 1.05-.29 2.14-.23t2.1.46q1.01.41 1.85 1.11.83.71 1.39 1.64.56.94.8 2.01.23 1.06.11 2.15-.12 1.07-.57 2.06-.46.99-1.21 1.78-.75.8-1.72 1.31-.96.51-2.04.68l-1.08.18-2.4-.05q-2.41-.04-5.17-.12-2.77-.07-5.62-.17-2.86-.1-5.49-.18-2.63-.07-4.93-.16-2.31-.09-4.63-.19-2.33-.11-5.29-.19-2.95-.09-6.07-.07-3.13.01-6 .33t-3.5.31-1.25-.18q-.62-.16-1.18-.47-.55-.31-1.02-.74-.47-.44-.82-.97-.36-.53-.57-1.14-.21-.6-.28-1.23-.06-.63.03-1.26t.33-1.22q.24-.6.61-1.11.38-.52.86-.93.49-.42 1.06-.7.57-.29 1.2-.42zm-88.677-40.79-2.75-1q-2.76-1-7.58-3.01-4.82-2.02-9.12-4.11t-10.83-4.67q-6.53-2.59-13.45-5.77-6.92-3.17-12.39-5.05-5.47-1.87-12.61-3.83-7.14-1.95-14.68-3.35t-15.98-3.46q-8.44-2.07-14.82-2.91-6.37-.85-13.98-1.8-7.6-.95-15.06-1.35-7.45-.39-12.78-.57-5.34-.17-12.11.04-6.77.22-14.14 1.16t-12.35 1.91q-4.98.96-9.61 2.75t-9.83 4.26q-5.2 2.48-8.78 4.19-3.59 1.71-7.4 4.04-3.82 2.33-7.18 4.1-3.36 1.76-5.95 3.41t-4.98 3.27q-2.39 1.63-4.79 2.97-2.41 1.35-3.02 1.53-.6.18-1.23.15-.63-.02-1.22-.25-.59-.22-1.08-.62t-.82-.94q-.33-.53-.48-1.15-.15-.61-.09-1.24t.32-1.2q.25-.58.68-1.05.42-.46.98-.77.55-.3 1.17-.41t1.25-.02q.62.09 1.18.38.56.28 1.01.73.44.45.71 1.02.28.57.35 1.2.08.62-.04 1.24-.13.62-.45 1.17-.31.54-.79.96-.47.41-1.05.66-.59.24-1.21.28-.63.05-1.24-.11-.62-.16-1.14-.5-.53-.35-.92-.85-.39-.49-.6-1.09-.21-.59-.22-1.22t.18-1.24q.19-.6.56-1.1.38-.51.89-.88l.52-.36 2.25-.9q2.24-.9 4.88-2.31 2.64-1.42 5.54-2.86 2.91-1.44 6.14-2.88t7.31-3.96q4.09-2.52 7.7-4.09 3.61-1.58 8.99-4.13 5.39-2.55 10.45-4.47t10.22-2.91q5.16-1 12.77-1.97 7.62-.96 14.56-1.18t12.33-.05 13.03.57 15.27 1.34 14.29 1.82 14.96 2.89q8.3 2 16.06 3.42 7.77 1.41 15.09 3.36 7.32 1.96 13.07 3.87 5.76 1.91 12.57 4.94 6.8 3.02 13.57 5.56t10.96 4.39 9.2 3.68 7.64 3.13q2.62 1.3 2.95 1.49.34.2.62.46.28.27.48.6.21.33.33.7.13.36.16.75.03.38-.03.76-.07.38-.22.74t-.38.67q-.24.3-.54.55-.3.24-.65.41t-.73.24q-.38.08-.76.06-.38-.01-.76-.12z"/><path fill="#e06458" d="m40.057 21.59-1.59 1.75q-1.59 1.75-3.04 3.37-1.46 1.62-2.65 3.41-1.18 1.8-3.63 5.19-2.44 3.39-4.52 5.24t-3.71 3.55q-1.62 1.7-3.17 3.98-1.54 2.29-2.13-.62t1.97-3.11q2.55-.2 5.95 1.08 3.39 1.28 7.01 1.99t7.43 1.14q3.83.43 9.74.78 5.92.35 12.49.59t10.45.32q3.87.07 6.74-.04 2.86-.12 3.49-.01.62.1 1.17.4.56.3.99.76.44.46.7 1.03t.33 1.2-.07 1.25q-.14.61-.47 1.15t-.81.95-1.07.64-1.22.26-1.24-.14q-.6-.17-1.13-.52-.52-.36-.9-.87-.38-.5-.58-1.1t-.19-1.23q0-.63.2-1.23.21-.6.59-1.1t.91-.85q.52-.35 1.13-.52t1.24-.13 1.22.27q.58.24 1.06.65t.81.95q.32.54.45 1.16.14.62.07 1.25-.07.62-.34 1.2-.27.57-.71 1.02-.43.46-.99.76-.56.29-1.18.39l-.63.1-2.86-.14q-2.87-.13-6.75-.08-3.88.04-10.48.22-6.61.17-12.68.37-6.08.2-10.21.27-4.11.07-9.05-.06t-7.74-.84-5.35-1.06-4.9-1.13q-2.36-.77-3.72-2.69-1.36-1.91-.89-5.44.48-3.53 2.2-6.03 1.73-2.5 3.57-4.19 1.85-1.69 4.11-3.37 2.27-1.69 4.72-4.8 2.46-3.11 4.16-5.55t3.23-4.01q1.53-1.56 3.17-3.26t2.12-2.11q.49-.4 1.06-.68t1.19-.42q.62-.13 1.24-.11.63.01 1.24.18.62.17 1.17.48t1.01.75q.47.43.81.96.35.53.56 1.13.2.6.26 1.23.06.62-.03 1.25-.1.62-.34 1.21t-.61 1.1zM792.14 219.86l.41.59q.42.58.63 1.27.22.69.2 1.39-.02.72-.27 1.4-.25.67-.7 1.23t-1.05.95q-.61.39-1.31.56-.69.17-1.4.11-.72-.05-1.38-.34-.66-.28-1.19-.76-.54-.48-.89-1.11-.35-.62-.49-1.33-.13-.71-.04-1.41.1-.71.42-1.35.32-.65.83-1.15.5-.51 1.15-.83.64-.32 1.35-.42.71-.09 1.41.04.71.14 1.33.49.63.35 1.11.89.48.53.76 1.19.29.66.34 1.38.06.71-.11 1.4-.18.7-.56 1.31-.39.6-.95 1.05t-1.23.7q-.68.25-1.4.27-.71.02-1.39-.2-.69-.21-1.27-.63-.59-.42-.59-.41l-.33-.43q-.33-.42-.55-.91-.22-.48-.31-1.01-.1-.53-.07-1.05.04-.54.2-1.05t.43-.97q.28-.45.66-.83t.83-.66q.46-.28.97-.43.51-.16 1.05-.2.52-.03 1.05.07.53.09 1.01.31.49.22.91.55z"/><path fill="#e06458" d="m793.14 219.86.41.59q.42.58.63 1.27.22.69.2 1.39-.02.72-.27 1.4-.25.67-.7 1.23t-1.05.95q-.61.39-1.31.56-.69.17-1.4.11-.72-.05-1.38-.34-.66-.28-1.19-.76-.54-.48-.89-1.11-.35-.62-.49-1.33-.13-.71-.04-1.41.1-.71.42-1.35.32-.65.83-1.15.5-.51 1.15-.83.64-.32 1.35-.42.71-.09 1.41.04.71.14 1.33.49.63.35 1.11.89.48.53.76 1.19.29.66.34 1.38.06.71-.11 1.4-.18.7-.56 1.31-.39.6-.95 1.05t-1.23.7q-.68.25-1.4.27-.71.02-1.39-.2-.69-.21-1.27-.63-.59-.42-.59-.41l-.33-.43q-.33-.42-.55-.91-.22-.48-.31-1.01-.1-.53-.07-1.05.04-.54.2-1.05t.43-.97q.28-.45.66-.83t.83-.66q.46-.28.97-.43.51-.16 1.05-.2.52-.03 1.05.07.53.09 1.01.31.49.22.91.55z"/></svg>